<?xml version="1.0" standalone="no"?>
<!DOCTYPE svg PUBLIC "-//W3C//DTD SVG 1.1//EN" "http://www.w3.org/Graphics/SVG/1.1/DTD/svg11.dtd" >
<svg>
<metadata>
Created by FontForge 20090914 at Mon Nov  2 15:27:44 2015
 By www-data
Typeface &#194;&#169; (Mehmet Reha Tugcu). 2015. All Rights Reserved
</metadata>
<defs>
<font id="Timber" horiz-adv-x="996" >
  <font-face 
    font-family="Timber"
    font-weight="400"
    font-stretch="normal"
    units-per-em="2048"
    panose-1="2 0 5 0 0 0 0 0 0 0"
    ascent="1638"
    descent="-410"
    x-height="1402"
    cap-height="1402"
    bbox="-5 -196 1658 1434"
    underline-thickness="150"
    underline-position="-142"
    unicode-range="U+001D-U+F002"
  />
<missing-glyph horiz-adv-x="1024" 
d="M100 0v1434h824v-1434h-824zM150 50h724v1334h-724v-1334zM325 1148c20.667 18.667 40.002 32.998 58.002 42.998c35.333 20 72.666 30 111.999 30c61.333 0 110.666 -15.833 147.999 -47.5s56 -74.167 56 -127.5c0 -32.667 -7.66699 -65.5 -23 -98.5
s-44.333 -76.167 -87 -129.5c-42 -53.333 -75 -97.333 -99 -132s-36 -67.667 -36 -99c0 -25.333 8 -69.666 24 -132.999h-32c-23.333 64.667 -35 114 -35 148c0 50.667 27.167 123.334 81.5 218.001s81.5 167 81.5 217c0 38 -11 68 -33 90s-52.333 33 -91 33
c-25.333 0 -48.333 -5.66699 -69 -17c-17.333 -10 -36 -23.333 -56 -40v45zM389.002 333.998l57 57.999c7.33301 6.66699 14 10 20 10c6.66699 0 14 -3.66699 22 -11l56 -60c6 -7.33301 9 -14 9 -20c0 -7.33301 -3.33301 -14.666 -10 -21.999l-56 -62
c-9.33301 -9.33301 -16.333 -14 -21 -14c-7.33301 0 -14 3.33301 -20 10l-61 71c-4.66699 6 -7 12 -7 18c0 6.66699 3.66699 14 11 22z" />
    <glyph glyph-name=".notdef" horiz-adv-x="1024" 
d="M100 0v1434h824v-1434h-824zM150 50h724v1334h-724v-1334zM325 1148c20.667 18.667 40.002 32.998 58.002 42.998c35.333 20 72.666 30 111.999 30c61.333 0 110.666 -15.833 147.999 -47.5s56 -74.167 56 -127.5c0 -32.667 -7.66699 -65.5 -23 -98.5
s-44.333 -76.167 -87 -129.5c-42 -53.333 -75 -97.333 -99 -132s-36 -67.667 -36 -99c0 -25.333 8 -69.666 24 -132.999h-32c-23.333 64.667 -35 114 -35 148c0 50.667 27.167 123.334 81.5 218.001s81.5 167 81.5 217c0 38 -11 68 -33 90s-52.333 33 -91 33
c-25.333 0 -48.333 -5.66699 -69 -17c-17.333 -10 -36 -23.333 -56 -40v45zM389.002 333.998l57 57.999c7.33301 6.66699 14 10 20 10c6.66699 0 14 -3.66699 22 -11l56 -60c6 -7.33301 9 -14 9 -20c0 -7.33301 -3.33301 -14.666 -10 -21.999l-56 -62
c-9.33301 -9.33301 -16.333 -14 -21 -14c-7.33301 0 -14 3.33301 -20 10l-61 71c-4.66699 6 -7 12 -7 18c0 6.66699 3.66699 14 11 22z" />
    <glyph glyph-name=".null" horiz-adv-x="0" 
 />
    <glyph glyph-name=".null" horiz-adv-x="0" 
 />
    <glyph glyph-name="space" unicode=" " horiz-adv-x="508" 
 />
    <glyph glyph-name="space" unicode="&#xa0;" horiz-adv-x="508" 
 />
    <glyph glyph-name="exclam" unicode="!" horiz-adv-x="639" 
d="M194 300h75v1102h-75v-1102zM319 300h75v1102h-75v-1102zM319 200v-200h-50v200h-75v-200h200v200h-75z" />
    <glyph glyph-name="quotedbl" unicode="&#x22;" horiz-adv-x="530" 
d="M276 1433v-401h-50v401h-75v-401h200v401h-75z" />
    <glyph glyph-name="quotesingle" unicode="'" horiz-adv-x="530" 
d="M276 1433v-401h-50v401h-75v-401h200v401h-75z" />
    <glyph glyph-name="comma" unicode="," horiz-adv-x="466" 
d="M237 205v-401h-50v401h-75v-401h200v401h-75z" />
    <glyph glyph-name="hyphen" unicode="-" horiz-adv-x="979" 
d="M119 400h701v75h-701v-75zM119 525h701v75h-701v-75z" />
    <glyph glyph-name="hyphen" unicode="&#xad;" horiz-adv-x="979" 
d="M119 400h701v75h-701v-75zM119 525h701v75h-701v-75z" />
    <glyph glyph-name="period" unicode="." horiz-adv-x="452" 
d="M229 200v-200h-50v200h-75v-200h200v200h-75z" />
    <glyph glyph-name="zero" unicode="0" 
d="M711 300c0 -27.333 -9.66699 -50.666 -29 -69.999c-20 -20 -43.667 -30 -71 -30h-200c-28 0 -51.667 10 -71 30c-20 19.333 -30 42.666 -30 69.999v802c0 27.333 10 51 30 71c19.333 19.333 43 29 71 29h200c27.333 0 51 -9.66699 71 -29c19.333 -20 29 -43.667 29 -71
v-802zM411 1277c-48.667 0 -90 -17 -124 -51c-34.667 -34.667 -52 -76 -52 -124v-802c0 -48 17.333 -89 52 -123c34 -34.667 75.333 -52 124 -52h200c48 0 89.333 17.333 124 52c34 34 51 75 51 123v802c0 48 -17 89.333 -51 124c-34.667 34 -76 51 -124 51h-200zM836 300
c0 -62 -22 -115 -66 -159s-97 -66 -159 -66h-201c-62 0 -115 22 -159 66s-66 97 -66 159v802c0 62 22 115 66 159s97 66 159 66h201c62 0 115 -22 159 -66s66 -97 66 -159v-802zM410 1402c-82.667 0 -153.334 -29.333 -212.001 -88s-88 -129.334 -88 -212.001v-802
c0 -82.667 29.333 -153.334 88 -212.001s129.334 -88 212.001 -88h201c82.667 0 153.334 29.333 212.001 88s88 129.334 88 212.001v802c0 82.667 -29.333 153.334 -88 212.001s-129.334 88 -212.001 88h-201z" />
    <glyph glyph-name="one" unicode="1" horiz-adv-x="739" 
d="M354 1245l-168 -241.001l61 -43l168 241v-1202h76v1202c0 36.667 -17.667 60.334 -53 71.001c-34.667 11.333 -62.667 2 -84 -28zM351 1392c-41.333 -14 -74.667 -38.999 -100 -74.999l-168 -241l82 -57l-20 14l168 241c35.333 50 82 65.667 140 47
c58.667 -18 88 -57.667 88 -119v-1202h75v1202c0 44 -13 83.333 -39 118c-25.333 35.333 -59 59.666 -101 72.999s-83.667 13 -125 -1z" />
    <glyph glyph-name="two" unicode="2" 
d="M188 701c0 34.667 12.333 64.3311 37 88.998c24.667 24 54 36 88 36h401c20.667 0 38.334 7.33301 53.001 22s22 32.667 22 54v300c0 20.667 -7.33301 38.334 -22 53.001s-32.334 22 -53.001 22h-601v-75h601v-300h-401c-55.333 0 -102.333 -19.667 -141 -59
c-39.333 -39.333 -59 -86.666 -59 -141.999v-501c0 -55.333 19.667 -102.333 59 -141c38.667 -39.333 85.667 -59 141 -59h601v75h-601c-34 0 -63.333 12.333 -88 37s-37 54 -37 88v501zM714 700.997c55.333 0 102.666 19.6729 141.999 59.0059
c38.667 39.333 58 86.666 58 141.999v300c0 55.333 -19.333 102.666 -58 141.999c-39.333 38.667 -86.666 58 -141.999 58h-601v-75h601c34.667 0 64 -12 88 -36c24.667 -24.667 37 -54.334 37 -89.001v-300c0 -34.667 -12.333 -64.334 -37 -89.001
c-24 -24.667 -53.333 -37 -88 -37h-401c-20.667 0 -38.334 -7.33301 -53.001 -22s-22 -32.334 -22 -53.001v-501c0 -20.667 7.33301 -38.334 22 -53.001s32.334 -22 53.001 -22h601v75h-601v501h401z" />
    <glyph glyph-name="three" unicode="3" 
d="M767 1102c0 48 -17 89.333 -51 124c-34.667 34 -76 51 -124 51h-501v-75h501c27.333 0 51 -9.66699 71 -29c19.333 -20 29 -43.667 29 -71v-201h-601v-75h676v276zM91 1402v-75.001h501c62 0 115 -22 159 -66s66 -97 66 -159v-801c0 -62.667 -22 -116 -66 -160
s-97 -66 -159 -66h-501v-75h501c82.667 0 153.334 29.333 212.001 88s88 129.667 88 213v801c0 82.667 -29.333 153.334 -88 212.001s-129.334 88 -212.001 88h-501zM767 775.999l-676 -0.000976562v-75h601v-401c0 -27.333 -9.66699 -50.666 -29 -69.999
c-20 -20 -43.667 -30 -71 -30h-501v-75h501c48 0 89.333 17.333 124 52c34 34 51 75 51 123v476z" />
    <glyph glyph-name="four" unicode="4" 
d="M764 776l-0.000976562 626.001h-75v-551h-401v551h-75v-551c0 -20.667 7.33301 -38.334 22 -53.001s32.334 -22 53.001 -22h476zM287.999 726.001c-34 0 -63.333 12.333 -88 37s-37 54 -37 88v551h-75v-551c0 -54.667 19.667 -101.667 59 -141
c38.667 -39.333 85.667 -59 141 -59h401v-651h75v726h-476zM813.999 1402v-1402h75v1402h-75z" />
    <glyph glyph-name="five" unicode="5" 
d="M306 1402c-55.333 0 -102.333 -19.3389 -141 -58.0059c-39.333 -39.333 -59 -86.666 -59 -141.999v-300c0 -55.333 19.667 -102.666 59 -141.999c38.667 -39.333 85.667 -59 141 -59h401v-501h-601v-75h601c20.667 0 38.334 7.33301 53.001 22s22 32.334 22 53.001v501
c0 20.667 -7.33301 38.334 -22 53.001s-32.334 22 -53.001 22h-401c-34 0 -63.333 12.333 -88 37s-37 54.334 -37 89.001v300c0 34.667 12.333 64.334 37 89.001c24.667 24 54 36 88 36h601v75h-601zM231 901.994c0 -21.333 7.33301 -39.3301 22 -53.9971
s32.334 -22 53.001 -22h401c34.667 0 64 -12 88 -36c24.667 -24.667 37 -54.334 37 -89.001v-501c0 -34 -12.333 -63.333 -37 -88c-24 -24.667 -53.333 -37 -88 -37h-601v-75h601c55.333 0 102.666 19.667 141.999 59c38.667 38.667 58 85.667 58 141v501
c0 55.333 -19.333 102.666 -58 141.999c-39.333 39.333 -86.666 59 -141.999 59h-401v300h601v75h-601c-20.667 0 -38.334 -7.33301 -53.001 -22s-22 -32.334 -22 -53.001v-300z" />
    <glyph glyph-name="six" unicode="6" 
d="M321 701h401v-501h-401v501zM722 125c20.667 0 38.333 7.33203 53 21.999s22 32.334 22 53.001v501c0 20.667 -7.33301 38.334 -22 53.001s-32.334 22 -53.001 22h-476v-576c0 -20.667 7.33301 -38.334 22 -53.001s32.334 -22 53.001 -22h401zM921.999 1327
l0.000976562 75.001h-601c-55.333 0 -102.333 -19.333 -141 -58c-39.333 -39.333 -59 -86.666 -59 -141.999v-1002c0 -55.333 19.667 -102.333 59 -141c38.667 -39.333 85.667 -59 141 -59h401c55.333 0 102.666 19.667 141.999 59c38.667 38.667 58 85.667 58 141v501
c0 55.333 -19.333 102.666 -58 141.999c-39.333 39.333 -86.666 59 -141.999 59h-401v300h601v75h-601c-20.667 0 -38.334 -7.33301 -53.001 -22s-22 -32.334 -22 -53.001v-376h476c34.667 0 64 -12 88 -36c24.667 -24.667 37 -54.334 37 -89.001v-501
c0 -34 -12.333 -63.333 -37 -88c-24 -24.667 -53.333 -37 -88 -37h-401c-34 0 -63.333 12.333 -88 37s-37 54 -37 88v1002c0 34.667 12.333 64.334 37 89.001c24.667 24 54 36 88 36h601z" />
    <glyph glyph-name="seven" unicode="7" 
d="M657 1277h-574.999v-75h575l-281 -1202h78l276 1185c5.33301 24 0.666016 45.333 -14.001 64c-15.333 18.667 -35 28 -59 28zM657.001 1403l-575 -0.00195312v-76h575c40 0 72.667 -15.667 98 -47s33.333 -66.666 24 -105.999l-274 -1174h77l270 1157
c14.667 62.667 2 119.334 -38 170.001s-92.333 76 -157 76z" />
    <glyph glyph-name="eight" unicode="8" 
d="M835 200c0 -34 -12.333 -63.333 -37 -88c-24 -24.667 -53.333 -37 -88 -37h-401c-34 0 -63.333 12.333 -88 37s-37 54 -37 88v1002c0 34.667 12.333 64.334 37 89.001c24.667 24 54 36 88 36h401c34.667 0 64 -12 88 -36c24.667 -24.667 37 -54.334 37 -89.001v-1002z
M309 1402c-55.333 0 -102.333 -19.333 -141 -58c-39.333 -39.333 -59 -86.666 -59 -141.999v-1002c0 -55.333 19.667 -102.333 59 -141c38.667 -39.333 85.667 -59 141 -59h401c55.333 0 102.666 19.667 141.999 59c38.667 38.667 58 85.667 58 141v1002
c0 55.333 -19.333 102.666 -58 141.999c-39.333 38.667 -86.666 58 -141.999 58h-401zM309 701h401v-501h-401v501zM234 200c0 -20.667 7.33105 -38.334 21.998 -53.001s32.334 -22 53.001 -22h401c20.667 0 38.334 7.33301 53.001 22s22 32.334 22 53.001v576h-551v-576z
M709.998 902h-401v300h401v-300zM308.998 1277c-20.667 0 -38.332 -7.33301 -52.999 -22s-22 -32.334 -22 -53.001v-376h551v376c0 20.667 -7.33301 38.334 -22 53.001s-32.334 22 -53.001 22h-401z" />
    <glyph glyph-name="nine" unicode="9" 
d="M287 1402c-55.333 0 -102.334 -19.335 -141.001 -58.002c-39.333 -39.333 -59 -86.666 -59 -141.999v-300c0 -55.333 19.667 -102.666 59 -141.999c38.667 -39.333 85.667 -59 141 -59h401v-701h75v776h-476c-34 0 -63.333 12.333 -88 37s-37 54.334 -37 89.001v300
c0 34.667 12.333 64.334 37 89.001c24.667 24 54 36 88 36h401c34.667 0 64 -12 88 -36c24.667 -24.667 37 -54.334 37 -89.001v-1202h75v1202c0 55.333 -19.333 102.666 -58 141.999c-39.333 38.667 -86.666 58 -141.999 58h-401zM687.999 901.998h-401v300h401v-300z
M286.999 1277c-20.667 0 -38.333 -7.33301 -53 -22s-22 -32.334 -22 -53.001v-300c0 -21.333 7.33301 -39.333 22 -54s32.334 -22 53.001 -22h476v376c0 20.667 -7.33301 38.334 -22 53.001s-32.334 22 -53.001 22h-401z" />
    <glyph glyph-name="question" unicode="?" horiz-adv-x="899" 
d="M395 200v-200h-51v200h-75v-200h201v200h-75zM69 1402l0.000976562 -74.9951h551c34.667 0 64 -12 88 -36c24.667 -24.667 37 -54.334 37 -89.001v-300c0 -34.667 -12.333 -64.334 -37 -89.001c-24 -24.667 -53.333 -37 -88 -37h-150
c-20.667 0 -38.334 -7.33301 -53.001 -22s-22 -32.334 -22 -53.001v-401h75v401h150c55.333 0 102.666 19.667 141.999 59c38.667 39.333 58 86.666 58 141.999v300c0 55.333 -19.333 102.666 -58 141.999c-39.333 38.667 -86.666 58 -141.999 58h-551zM620.001 826.005
c20.667 0 38.332 7.33008 52.999 21.9971s22 32.667 22 54v300c0 20.667 -7.33301 38.334 -22 53.001s-32.334 22 -53.001 22h-551v-75h551v-300h-150c-55.333 0 -102.666 -19.667 -141.999 -59s-59 -86.666 -59 -141.999v-400h75v400c0 34.667 12.333 64.334 37 89.001
c24.667 24 54.334 36 89.001 36h150z" />
    <glyph glyph-name="A" unicode="A" horiz-adv-x="1017" 
d="M173 776v-776h75v701h451v-701h75v776h-601zM699 901h-451v201c0 27.333 10 51 30 71c19.333 19.333 43 29 71 29h350v-301zM173 826h601v451h-425c-48.667 0 -90 -17 -124 -51c-34.667 -34.667 -52 -76 -52 -124v-276zM348 1402
c-82.667 0 -153.333 -29.332 -212 -87.999s-88 -129.334 -88 -212.001v-1102h75v1102c0 62 22 115 66 159s97 66 159 66h476v-1327h75v1402h-551z" />
    <glyph glyph-name="B" unicode="B" horiz-adv-x="1017" 
d="M260 701l451 -0.000976562v-401c0 -27.333 -9.66699 -50.666 -29 -69.999c-20 -20 -43.667 -30 -71 -30h-351v501zM185 124.999h426c48 0 89.333 17.333 124 52c34 34 51 75 51 123v476h-601v-651zM836 299.999c0 -62 -22 -115 -66 -159s-97 -66 -159 -66h-476v1252h376
c89.333 0 166 -31.667 230 -95c63.333 -64 95 -140.667 95 -230v-702zM60 1402l-0.000976562 -1402h551c82.667 0 153.334 29.333 212.001 88s88 129.334 88 212.001v702c0 110 -39 204.333 -117 283c-78.667 78 -173 117 -283 117h-451zM710.999 900.998h-451v301h251
c55.333 0 102.333 -19.667 141 -59c39.333 -38.667 59 -85.667 59 -141v-101zM184.999 1277v-451h601v176c0 76 -27 140.667 -81 194c-53.333 54 -118 81 -194 81h-326z" />
    <glyph glyph-name="C" unicode="C" horiz-adv-x="882" 
d="M162 401c0 -76 27 -140.999 81 -194.999s119 -81 195 -81h400v75h-400c-55.333 0 -102.666 19.667 -141.999 59s-59 86.666 -59 141.999v601c0 55.333 19.667 102.333 59 141c39.333 39.333 86.666 59 141.999 59h400v75h-400c-76 0 -141 -27 -195 -81
c-54 -53.333 -81 -118 -81 -194v-601zM438 1402c-110.667 0 -205.334 -38.999 -284.001 -116.999c-78 -78.667 -117 -173 -117 -283v-601c0 -110.667 39 -205.334 117 -284.001c78.667 -78 173.334 -117 284.001 -117h400v75h-400c-90 0 -166.667 32 -230 96
c-64 63.333 -96 140 -96 230v601c0 89.333 32 166 96 230c63.333 63.333 140 95 230 95h400v75h-400z" />
    <glyph glyph-name="D" unicode="D" horiz-adv-x="1040" 
d="M733 401c0 -55.333 -19.667 -102.667 -59 -142c-38.667 -39.333 -85.667 -59 -141 -59h-251v1002h251c55.333 0 102.333 -19.667 141 -59c39.333 -38.667 59 -85.667 59 -141v-601zM207 1277v-1152h326c76 0 140.667 27 194 81c54 54 81 119 81 195v601
c0 76 -27 140.667 -81 194c-53.333 54 -118 81 -194 81h-326zM858 400.999c0 -90 -31.667 -166.667 -95 -230c-64 -64 -140.667 -96 -230 -96h-376v1252h376c89.333 0 166 -31.667 230 -95c63.333 -64 95 -140.667 95 -230v-601zM82 1402v-1402h451
c110 0 204.333 39 283 117c78 78.667 117 173.334 117 284.001v601c0 110 -39 204.333 -117 283c-78.667 78 -173 117 -283 117h-451z" />
    <glyph glyph-name="E" unicode="E" horiz-adv-x="905" 
d="M170 826h676v75h-601v201c0 27.333 10 51 30 71c19.333 19.333 43 29 71 29h500v75h-500c-48.667 0 -90 -17 -124 -51c-34.667 -34.667 -52 -76 -52 -124v-276zM170 300c0 -48 17.333 -88.999 52 -122.999c34 -34.667 75.333 -52 124 -52h500v75h-500
c-28 0 -51.667 10 -71 30c-20 19.333 -30 42.666 -30 69.999v401h601v75h-676v-476zM345 1402c-82.667 0 -153.334 -29.332 -212.001 -87.999s-88 -129.334 -88 -212.001v-801c0 -83.333 29.333 -154.333 88 -213s129.334 -88 212.001 -88h501v75h-501
c-62 0 -115 22 -159 66s-66 97.333 -66 160v801c0 62 22 115 66 159s97 66 159 66h501v75h-501z" />
    <glyph glyph-name="F" unicode="F" horiz-adv-x="900" 
d="M173 776v-776h75v701h601v75h-676zM173 826h676v76h-601v200c0 27.333 10 51 30 71c19.333 19.333 43 29 71 29h500v75h-500c-48.667 0 -90 -17 -124 -51c-34.667 -34.667 -52 -76 -52 -124v-276zM348 1402c-82.667 0 -153.333 -29.332 -212 -87.999
s-88 -129.334 -88 -212.001v-1102h75v1102c0 62 22 115 66 159s97 66 159 66h501v75h-501z" />
    <glyph glyph-name="G" unicode="G" horiz-adv-x="1014" 
d="M387 901l-0.00195312 -74.9971h350c34.667 0 64.334 -12 89.001 -36c24 -24.667 36 -54.334 36 -89.001v-626h-425c-90 0 -166.667 32 -230 96c-64 63.333 -96 140 -96 230v601c0 89.333 32 166 96 230c63.333 63.333 140 95 230 95h400v75h-400
c-110.667 0 -205.334 -39 -284.001 -117c-78 -78.667 -117 -173 -117 -283v-601c0 -110.667 39 -205.334 117 -284.001c78.667 -78 173.334 -117 284.001 -117h500v701c0 55.333 -19.333 102.666 -58 141.999c-39.333 38.667 -86.666 58 -141.999 58h-350zM836.998 1202
l0.000976562 75h-400c-76 0 -141 -27 -195 -81c-54 -53.333 -81 -118 -81 -194v-601c0 -76 27 -141 81 -195s119 -81 195 -81h375v576c0 20.667 -7.33301 38.334 -22 53.001s-32.334 22 -53.001 22h-350v-75h350v-501h-300c-55.333 0 -102.666 19.667 -141.999 59
s-59 86.666 -59 141.999v601c0 55.333 19.667 102.333 59 141c39.333 39.333 86.666 59 141.999 59h400z" />
    <glyph glyph-name="H" unicode="H" horiz-adv-x="1030" 
d="M60 0h75v1402h-75v-1402zM711 1402v-501h-451v501h-75v-576h601v576h-75zM185 776v-776h75v701h451v-701h75v776h-601zM836 0h75v1402h-75v-1402z" />
    <glyph glyph-name="I" unicode="I" horiz-adv-x="378" 
d="M184 0h75v1402h-75v-1402zM59 0h75v1402h-75v-1402z" />
    <glyph glyph-name="J" unicode="J" horiz-adv-x="562" 
d="M321 1402l-76 -0.000976562v-1102c0 -27.333 -9.66699 -50.666 -29 -69.999c-19.333 -20 -43 -30 -71 -30h-150v-75h150c48.667 0 90 17.333 124 52c34.667 34 52 75 52 123v1102zM371 1402v-1101c0 -62.667 -22 -116 -66 -160c-44.667 -44 -98 -66 -160 -66h-150v-75
h150c83.333 0 154.333 29.333 213 88s88 129.667 88 213v1101h-75z" />
    <glyph glyph-name="K" unicode="K" horiz-adv-x="931" 
d="M796 1402l-583 -582l590 -820h93l-585 812l591 590h-106zM619 1402l-360 -359v359h-75v-540l541 540h-106zM184 0h75v541l390 -541h92l-557 774v-774zM59 0h75v1402h-75v-1402z" />
    <glyph glyph-name="L" unicode="L" horiz-adv-x="891" 
d="M130 1402l-75 0.000976562v-1102c0 -82.667 29.333 -153.334 88 -212.001s129.667 -88 213 -88h500v75h-500c-62.667 0 -116 22 -160 66s-66 97 -66 159v1102zM356 200.001c-28 0 -51.667 10.001 -71 30.001c-20 19.333 -30 42.666 -30 69.999v1102h-75v-1102
c0 -48 17.333 -89 52 -123c34 -34.667 75.333 -52 124 -52h500v75h-500z" />
    <glyph glyph-name="M" unicode="M" horiz-adv-x="1172" 
d="M257 1277c-20.667 0 -38.333 -7.33203 -53 -21.999s-22 -32.334 -22 -53.001v-1202h75v1202h201v-451h75v526h-276zM257.001 1402c-55.333 0 -102.335 -19.333 -141.002 -58c-39.333 -39.333 -59 -86.666 -59 -141.999v-1202h75v1202c0 34.667 12.333 64 37 88
c24.667 24.667 54 37 88 37h601c34.667 0 64.334 -12.333 89.001 -37c24.667 -24 37 -53.333 37 -88v-1202h75v1202c0 55.333 -19.667 102.666 -59 141.999c-39.333 38.667 -86.666 58 -141.999 58h-601zM582.999 1277l0.000976562 -526.001h75v451h200v-1202h75v1202
c0 20.667 -7.33301 38.334 -22 53.001s-32.334 22 -53.001 22h-275z" />
    <glyph glyph-name="N" unicode="N" horiz-adv-x="1028" 
d="M273 1289l1 -2.99805l463 -1149c6.66699 -10 16 -13.667 28 -11c12 3.33301 18 11.333 18 24v1253h-75v-993l-367 910l-3 6c-17.333 30 -41.333 51.667 -72 65c-31.333 13.333 -63.666 15.666 -96.999 6.99902c-33.333 -9.33301 -60.333 -27.333 -81 -54
s-31 -57.334 -31 -92.001v-1252h75v1252c0 38.667 18.667 63 56 73s65.666 -2 84.999 -36zM833 1403l0.000976562 -1253c0 -38 -18.667 -62 -56 -72s-65.333 1.66699 -84 35l-2 3l-463 1150c-6 10 -15 13.333 -27 10c-12.667 -3.33301 -19 -11.333 -19 -24v-1252h75v993
l367 -911l3 -5c29.333 -51.333 72.666 -77 129.999 -77c13.333 0 26.333 1.66699 39 5c34 8.66699 61.333 26.334 82 53.001c20 26.667 30 57.334 30 92.001v1253h-75z" />
    <glyph glyph-name="O" unicode="O" horiz-adv-x="989" 
d="M702 401c0 -55.333 -19.667 -102.666 -59 -141.999c-38.667 -39.333 -85.667 -59 -141 -59h-50c-55.333 0 -102.666 19.667 -141.999 59s-59 86.666 -59 141.999v601c0 55.333 19.667 102.333 59 141c39.333 39.333 86.666 59 141.999 59h50
c55.333 0 102.333 -19.667 141 -59c39.333 -38.667 59 -85.667 59 -141v-601zM452 1277c-76 0 -141 -27 -195 -81c-54 -53.333 -81 -118 -81 -194v-601c0 -76 27 -141 81 -195s119 -81 195 -81h50c76 0 140.667 27 194 81c54 54 81 119 81 195v601c0 76 -27 140.667 -81 194
c-53.333 54 -118 81 -194 81h-50zM827 401c0 -90 -31.667 -166.667 -95 -230c-64 -64 -140.667 -96 -230 -96h-50c-90 0 -166.667 32 -230 96c-64 63.333 -96 140 -96 230v601c0 89.333 32 166 96 230c63.333 63.333 140 95 230 95h50c89.333 0 166 -31.667 230 -95
c63.333 -64 95 -140.667 95 -230v-601zM452 1402c-110.667 0 -205.334 -39 -284.001 -117c-78 -78.667 -117 -173 -117 -283v-601c0 -110.667 39 -205.334 117 -284.001c78.667 -78 173.334 -117 284.001 -117h50c110 0 204.333 39 283 117
c78 78.667 117 173.334 117 284.001v601c0 110 -39 204.333 -117 283c-78.667 78 -173 117 -283 117h-50z" />
    <glyph glyph-name="P" unicode="P" horiz-adv-x="918" 
d="M349 1402c-83.333 0 -154.333 -29.3311 -213 -87.998s-88 -129.334 -88 -212.001v-1102h75v1102c0 62 22 115 66 159s97.333 66 160 66h300c34.667 0 64 -12.333 88 -37c24.667 -24 37 -53.333 37 -88v-301c0 -34 -12.333 -63.333 -37 -88
c-24 -24.667 -53.333 -37 -88 -37h-476v-776h75v701h401c55.333 0 102.666 19.667 141.999 59c38.667 39.333 58 86.333 58 141v301c0 55.333 -19.333 102.666 -58 141.999c-39.333 38.667 -86.666 58 -141.999 58h-300zM248 1102c0 27.333 10.001 51 30.001 71
c19.333 19.333 42.666 29 69.999 29h301v-301h-401v201zM724.001 1202c0 20.667 -7.33301 38.332 -22 52.999s-32.334 22 -53.001 22h-301c-48 0 -89 -17 -123 -51c-34.667 -34.667 -52 -76 -52 -124v-276h476c20.667 0 38.334 7.33301 53.001 22s22 32.334 22 53.001v301z
" />
    <glyph glyph-name="Q" unicode="Q" horiz-adv-x="974" 
d="M438 1277c-76 0 -141 -26.999 -195 -80.999c-54 -53.333 -81 -118 -81 -194v-601c0 -76 27 -141 81 -195s119 -81 195 -81h50c44 0 85.667 10 125 30l-112 179l-63 -40l58 -93c-3.33301 -0.666992 -6 -1 -8 -1h-50c-55.333 0 -102.666 19.667 -141.999 59
s-59 86.666 -59 141.999v601c0 55.333 19.667 102.333 59 141c39.333 39.333 86.666 59 141.999 59h50c55.333 0 102.333 -19.667 141 -59c39.333 -38.667 59 -85.667 59 -141v-601c0 -32.667 -7.66699 -63.667 -23 -93l-57 93l-64 -40l111 -179
c72 55.333 108 128.333 108 219v601c0 76 -27 140.667 -81 194c-53.333 54 -118 81 -194 81h-50zM888 1002c0 110 -39 204.333 -117 283c-78.667 78 -173 117 -283 117h-50c-110.667 0 -205.334 -39 -284.001 -117c-78 -78.667 -117 -173 -117 -283v-601
c0 -110.667 39 -205.334 117 -284.001c78.667 -78 173.334 -117 284.001 -117h50c41.333 -0 81.666 6.33301 120.999 19l12 -19h88l-70 113c-47.333 -25.333 -97.666 -38 -150.999 -38h-50c-90 0 -166.667 32 -230 96c-64 63.333 -96 140 -96 230v601
c0 89.333 32 166 96 230c63.333 63.333 140 95 230 95h50c89.333 0 166 -31.667 230 -95c63.333 -64 95 -140.667 95 -230v-601c0 -109.333 -43.667 -196.666 -131 -261.999l87 -139h88l-78 126c72.667 77.333 109 169 109 275v601z" />
    <glyph glyph-name="R" unicode="R" horiz-adv-x="920" 
d="M648 1327c34.667 0 64.335 -12.3291 89.002 -36.9961c24 -24 36 -53.333 36 -88v-300c0 -34.667 -12 -64.334 -36 -89.001c-24.667 -24.667 -54.334 -37 -89.001 -37h-354l504 -776h91l-456 701h216c55.333 0 102.666 19.667 141.999 59
c38.667 39.333 58 86.666 58 141.999v300c0 55.333 -19.333 102.666 -58 141.999c-39.333 38.667 -86.666 58 -141.999 58h-301c-82.667 0 -153.334 -29.333 -212.001 -88s-88 -129.334 -88 -212.001v-1102h74v1102c0 62 22 115 66 159c44.667 44 98 66 160 66h300z
M248.001 1102c0 27.333 10.001 51 30.001 71c19.333 19.333 42.666 29 69.999 29h301v-300h-401v200zM648.002 826.004c20.667 0 38.334 7.33203 53.001 21.999s22 32.667 22 54v300c0 20.667 -7.33301 38.334 -22 53.001s-32.334 22 -53.001 22h-300
c-48.667 0 -90 -17 -124 -51c-34.667 -34.667 -52 -76 -52 -124v-276h476zM234.002 776.003h-62v-776h76v618l402 -618h89z" />
    <glyph glyph-name="S" unicode="S" horiz-adv-x="887" 
d="M137 1002c0 -48.667 17.333 -90.002 52 -124.002c34 -34.667 75.333 -52 124 -52h200c62 0 115 -22 159 -66s66 -97 66 -159v-301c0 -62 -22 -115 -66 -159s-97 -66 -159 -66h-501v-75h501c82.667 0 153.334 29.333 212.001 88s88 129.334 88 212.001v301
c0 82.667 -29.333 153.334 -88 212.001s-129.334 88 -212.001 88h-200c-28 0 -51.667 10 -71 30c-20 19.333 -30 43 -30 71v100c0 27.333 10 51 30 71c19.333 19.333 43 29 71 29h500v75h-500c-48.667 0 -90 -17 -124 -51c-34.667 -34.667 -52 -76 -52 -124v-100zM313 1402
c-83.333 0 -154.333 -29.332 -213 -87.999s-88 -129.334 -88 -212.001v-100c0 -83.333 29.333 -154.333 88 -213s129.667 -88 213 -88h200c27.333 0 51 -9.66699 71 -29c19.333 -20 29 -43.667 29 -71v-300c0 -28 -9.66699 -51.667 -29 -71c-20 -20 -43.667 -30 -71 -30
h-501v-75h501c48 0 89.333 17.333 124 52c34 34 51 75.333 51 124v300c0 48 -17 89.333 -51 124c-34.667 34 -76 51 -124 51h-200c-62.667 0 -116 22 -160 66s-66 97.333 -66 160v100c0 62 22 115 66 159s97.333 66 160 66h500v75h-500z" />
    <glyph glyph-name="T" unicode="T" horiz-adv-x="948" 
d="M50 1277v-75h324v-1202h75v1277h-399zM50 1327h849v75h-849v-75zM499 1277v-1277h76v1202h324v75h-400z" />
    <glyph glyph-name="U" unicode="U" horiz-adv-x="1004" 
d="M819 1402l-0.000976562 -1001c0 -90 -31.667 -166.667 -95 -230c-64 -64 -140.667 -96 -230 -96h-50c-90 0 -166.667 32 -230 96c-64 63.333 -96 140 -96 230v1001h-75v-1001c0 -110.667 39 -205.334 117 -284.001c78.667 -78 173.334 -117 284.001 -117h50
c110 0 204.333 39 283 117c78 78.667 117 173.334 117 284.001v1001h-75zM493.999 125c76 0 140.666 27 193.999 81c54 54 81 119 81 195v1001h-75v-1001c0 -55.333 -19.667 -102.666 -59 -141.999c-38.667 -39.333 -85.667 -59 -141 -59h-50
c-55.333 0 -102.666 19.667 -141.999 59s-59 86.666 -59 141.999v1001h-75v-1001c0 -76 27 -141 81 -195s119 -81 195 -81h50z" />
    <glyph glyph-name="V" unicode="V" horiz-adv-x="992" 
d="M579 181l237 1221h-76l-215 -1103l-268 1103h-77l298 -1226c8 -34.667 25 -51.667 51 -51s42.667 19.334 50 56.001zM867 1402l-238.999 -1231c-6 -30.667 -19 -54.667 -39 -72c-17.333 -15.333 -37 -23.333 -59 -24h-2c-51.333 0 -84.333 30 -99 90l-301 1237h-77
l305 -1255c10.667 -44 31.667 -79.667 63 -107c32 -26.667 68.333 -40 109 -40h4c42 1.33301 78.333 16.333 109 45c31.333 28.667 51.666 66 60.999 112l242 1245h-77z" />
    <glyph glyph-name="W" unicode="W" horiz-adv-x="1676" 
d="M567 181l237 1221h-76l-215 -1103l-268 1103h-77l298 -1226c8 -34.667 25 -51.667 51 -51s42.667 19.334 50 56.001zM1557 1402l-239.999 -1231c-6 -30.667 -19 -54.667 -39 -72c-17.333 -15.333 -37 -23.333 -59 -24h-2c-51.333 0 -84.333 30 -99 90l-279 1151
l-223 -1145c-6 -30.667 -19 -54.667 -39 -72c-17.333 -15.333 -37 -23.333 -59 -24h-2c-51.333 0 -84.333 30 -99 90l-301 1237h-77l305 -1255c10.667 -44 31.667 -79.667 63 -107c32 -26.667 68.333 -40 109 -40h4c42 1.33301 78.333 16.333 109 45
c31.333 28.667 51.666 66 60.999 112l157 807l198 -817c10.667 -44 32 -79.667 64 -107c31.333 -26.667 67.333 -40 108 -40h4c42 1.33301 78.667 16.333 110 45s51.333 66 60 112l242 1245h-76zM1268 180.999l238 1221h-77l-214 -1103l-269 1103h-77l298 -1226
c8.66699 -34.667 25.667 -51.667 51 -51c26 0.666992 42.667 19.334 50 56.001z" />
    <glyph glyph-name="X" unicode="X" horiz-adv-x="896" 
d="M617 1402l-176 -421l-176 421h-82l258 -617l258 617h-82zM47 1402l285 -682l-300 -720h81l301 720l-285 682h-82zM168 0h81l192 459l192 -459h82l-274 655zM754 1402l-285 -682l300 -720h82l-301 720l286 682h-82z" />
    <glyph glyph-name="Y" unicode="Y" horiz-adv-x="991" 
d="M774 826v576h-75v-500h-350c-28 0 -51.667 9.66699 -71 29c-20 19.333 -30 43 -30 71v400h-75v-400c0 -48.667 17.333 -90 52 -124c34 -34.667 75.333 -52 124 -52h425zM774 776l-425 -0.000976562c-62.667 0 -116 22 -160 66s-66 97.333 -66 160v400h-75v-400
c0 -83.333 29.333 -154.333 88 -213s129.667 -88 213 -88h350v-401c0 -27.333 -9.66699 -50.666 -29 -69.999c-20 -20 -43.667 -30 -71 -30h-551v-75h551c48 0 89.333 17.333 124 52c34 34 51 75 51 123v476zM824 1402l-0.000976562 -1101c0 -62.667 -22 -116 -66 -160
s-97 -66 -159 -66h-551v-75h551c82.667 0 153.334 29.333 212.001 88s88 129.667 88 213v1101h-75z" />
    <glyph glyph-name="Z" unicode="Z" horiz-adv-x="941" 
d="M126 248l1.00098 3l2 2l634 922c8.66699 24 6 47 -8 69c-14.667 22 -35.667 33 -63 33h-651v-75h649l-629 -915l-4 -10c-27.333 -66 -21.333 -128.667 18 -188c40 -59.333 95.667 -89 167 -89h651v75h-651c-44.667 0 -79.334 18.667 -104.001 56
c-25.333 37.333 -29.333 76.333 -12 117zM244.001 200l628.999 915l4 10c28 66 22 128.667 -18 188c-39.333 59.333 -95 89 -167 89h-651v-75h651c44.667 0 79.667 -18.667 105 -56c24.667 -36.667 28.334 -75.667 11.001 -117l-1 -3l-2 -2l-633 -922
c-9.33301 -24 -7 -46.667 7 -68c15.333 -22.667 36.333 -34 63 -34h651v75h-649z" />
    <glyph glyph-name="underscore" unicode="_" horiz-adv-x="1024" 
d="M0 0h701v75h-701v-75zM0 125h701v75h-701v-75z" />
    <glyph glyph-name="grave" unicode="`" horiz-adv-x="346" 
d="M122 1433v-401h-50v401h-75v-401h200v401h-75z" />
    <glyph glyph-name="a" unicode="a" horiz-adv-x="1044" 
d="M201 776v-530h75v455h451v-455h75v530h-601zM727 901h-451v201c0 27.333 10 51 30 71c19.333 19.333 43 29 71 29h350v-301zM201 826h601v451h-425c-48.667 0 -90 -17 -124 -51c-34.667 -34.667 -52 -76 -52 -124v-276zM376 1402
c-82.667 0 -153.333 -29.332 -212 -87.999s-88 -129.334 -88 -212.001v-642h75v642c0 62 22 115 66 159s97 66 159 66h476v-1327h75v1402h-551z" />
    <glyph glyph-name="b" unicode="b" horiz-adv-x="986" 
d="M235 701l451 -0.000976562v-401c0 -27.333 -9.66699 -50.666 -29 -69.999c-20 -20 -43.667 -30 -71 -30h-351v501zM160 124.999h426c48 0 89.333 17.333 124 52c34 34 51 75 51 123v476h-601v-651zM35 1402l-0.000976562 -267.001h75v192h376
c89.333 0 166 -31.667 230 -95c63.333 -64 95 -140.667 95 -230v-702c0 -62 -22 -115 -66 -159s-97 -66 -159 -66h-307v-75h307c82.667 0 153.334 29.333 212.001 88s88 129.334 88 212.001v702c0 110 -39 204.333 -117 283c-78.667 78 -173 117 -283 117h-451z
M685.999 900.998h-451v301h251c55.333 0 102.333 -19.667 141 -59c39.333 -38.667 59 -85.667 59 -141v-101zM159.999 1277v-451h601v176c0 76 -27 140.667 -81 194c-53.333 54 -118 81 -194 81h-326z" />
    <glyph glyph-name="c" unicode="c" horiz-adv-x="908" 
d="M213 401c0 -76 27 -140.999 81 -194.999s119 -81 195 -81h216v75h-216c-55.333 0 -102.666 19.667 -141.999 59s-59 86.666 -59 141.999v601c0 55.333 19.667 102.333 59 141c39.333 39.333 86.666 59 141.999 59h400v75h-400c-76 0 -141 -27 -195 -81
c-54 -53.333 -81 -118 -81 -194v-601zM489 1402c-110.667 0 -205.334 -38.999 -284.001 -116.999c-78 -78.667 -117 -173 -117 -283v-601c0 -110.667 39 -205.334 117 -284.001c78.667 -78 173.334 -117 284.001 -117h400v75h-400c-90 0 -166.667 32 -230 96
c-64 63.333 -96 140 -96 230v601c0 89.333 32 166 96 230c63.333 63.333 140 95 230 95h400v75h-400z" />
    <glyph glyph-name="d" unicode="d" horiz-adv-x="1053" 
d="M426 1277v-75.001h129c55.333 0 102.333 -19.667 141 -59c39.333 -38.667 59 -85.667 59 -141v-601c0 -55.333 -19.667 -102.666 -59 -141.999c-38.667 -39.333 -85.667 -59 -141 -59h-251v772h-75v-847h326c76 0 140.667 27 194 81c54 54 81 119 81 195v601
c0 76 -27 140.667 -81 194c-53.333 54 -118 81 -194 81h-129zM880 400.999c0 -90 -31.667 -166.667 -95 -230c-64 -64 -140.667 -96 -230 -96h-376v1252h376c89.333 0 166 -31.667 230 -95c63.333 -64 95 -140.667 95 -230v-601zM104 1402v-1402h451
c110 0 204.333 39 283 117c78 78.667 117 173.334 117 284.001v601c0 110 -39 204.333 -117 283c-78.667 78 -173 117 -283 117h-451z" />
    <glyph glyph-name="e" unicode="e" horiz-adv-x="912" 
d="M209 826h676v75h-601v201c0 27.333 10 51 30 71c19.333 19.333 43 29 71 29h385v75h-385c-48.667 0 -90 -17 -124 -51c-34.667 -34.667 -52 -76 -52 -124v-276zM209 300c0 -48 17.333 -88.999 52 -122.999c34 -34.667 75.333 -52 124 -52h500v75h-500
c-28 0 -51.667 10 -71 30c-20 19.333 -30 42.666 -30 69.999v401h358v75h-433v-476zM384 1402c-82.667 0 -153.334 -29.332 -212.001 -87.999s-88 -129.334 -88 -212.001v-801c0 -83.333 29.333 -154.333 88 -213s129.334 -88 212.001 -88h343v75h-343
c-62 0 -115 22 -159 66s-66 97.333 -66 160v801c0 62 22 115 66 159s97 66 159 66h501v75h-501z" />
    <glyph glyph-name="f" unicode="f" horiz-adv-x="936" 
d="M222 776v-615h75v540h601v75h-676zM222 826h676v75h-601v201c0 27.333 10 51 30 71c19.333 19.333 43 29 71 29h381v75h-381c-48.667 0 -90 -17 -124 -51c-34.667 -34.667 -52 -76 -52 -124v-276zM397 1402c-82.667 0 -153.333 -29.332 -212 -87.999
s-88 -129.334 -88 -212.001v-1102h75v1102c0 62 22 115 66 159s97 66 159 66h501v75h-501z" />
    <glyph glyph-name="g" unicode="g" horiz-adv-x="1067" 
d="M439 901l-0.00195312 -74.9971h350c34.667 0 64.334 -12 89.001 -36c24 -24.667 36 -54.334 36 -89.001v-626h-425c-90 0 -166.667 32 -230 96c-64 63.333 -96 140 -96 230v601c0 89.333 32 166 96 230c63.333 63.333 140 95 230 95h400v75h-400
c-110.667 0 -205.334 -39 -284.001 -117c-78 -78.667 -117 -173 -117 -283v-601c0 -110.667 39 -205.334 117 -284.001c78.667 -78 173.334 -117 284.001 -117h500v701c0 55.333 -19.333 102.666 -58 141.999c-39.333 38.667 -86.666 58 -141.999 58h-350zM721.998 1202
l0.000976562 75h-233c-76 0 -141 -27 -195 -81c-54 -53.333 -81 -118 -81 -194v-601c0 -76 27 -141 81 -195s119 -81 195 -81h375v576c0 20.667 -7.33301 38.334 -22 53.001s-32.334 22 -53.001 22h-237v-75h237v-501h-300c-55.333 0 -102.666 19.667 -141.999 59
s-59 86.666 -59 141.999v601c0 55.333 19.667 102.333 59 141c39.333 39.333 86.666 59 141.999 59h233z" />
    <glyph glyph-name="h" unicode="h" horiz-adv-x="1068" 
d="M104 0h75v1402h-75v-1402zM755 1402v-501h-451v285h-75v-360h601v576h-75zM229 776v-615h75v540h451v-412h75v487h-601zM880 0h75v1271h-75v-1271z" />
    <glyph glyph-name="i" unicode="i" horiz-adv-x="428" 
d="M231 0h75v1402h-75v-1402zM106 0h75v1402h-75v-1402z" />
    <glyph glyph-name="j" unicode="j" horiz-adv-x="579" 
d="M338 1143l-76 -0.000976562v-843c0 -27.333 -9.66699 -50.666 -29 -69.999c-19.333 -20 -43 -30 -71 -30h-150v-75h150c48.667 0 90 17.333 124 52c34.667 34 52 75 52 123v843zM388 1402v-1101c0 -62.667 -22 -116 -66 -160c-44.667 -44 -98 -66 -160 -66h-76v-75h76
c83.333 0 154.333 29.333 213 88s88 129.667 88 213v1101h-75z" />
    <glyph glyph-name="k" unicode="k" horiz-adv-x="871" 
d="M716 1271l-458 -451l590 -820h93l-585 812l466 459h-106zM664 1402l-360 -359v359h-75v-540l541 540h-106zM229 161h75v380l390 -541h92l-557 774v-613zM104 0h75v1402h-75v-1402z" />
    <glyph glyph-name="l" unicode="l" horiz-adv-x="882" 
d="M173 1402l-75 0.000976562v-1102c0 -82.667 29.333 -153.334 88 -212.001s129.667 -88 213 -88h500v75h-500c-62.667 0 -116 22 -160 66s-66 97 -66 159v1102zM399 200.001c-28 0 -51.667 10.001 -71 30.001c-20 19.333 -30 42.666 -30 69.999v928h-75v-928
c0 -48 17.333 -89 52 -123c34 -34.667 75.333 -52 124 -52h377v75h-377z" />
    <glyph glyph-name="m" unicode="m" horiz-adv-x="1219" 
d="M301 1277c-20.667 0 -38.333 -7.33203 -53 -21.999s-22 -32.334 -22 -53.001v-956h75v956h201v-451h75v526h-276zM301.001 1402c-55.333 0 -102.335 -19.333 -141.002 -58c-39.333 -39.333 -59 -86.666 -59 -141.999v-1202h75v1202c0 34.667 12.333 64 37 88
c24.667 24.667 54 37 88 37h601c34.667 0 64.334 -12.333 89.001 -37c24.667 -24 37 -53.333 37 -88v-1084h75v1084c0 55.333 -19.667 102.666 -59 141.999c-39.333 38.667 -86.666 58 -141.999 58h-601zM626.999 1277l0.000976562 -390.001h75v315h200v-1202h75v1202
c0 20.667 -7.33301 38.334 -22 53.001s-32.334 22 -53.001 22h-275z" />
    <glyph glyph-name="n" unicode="n" horiz-adv-x="1066" 
d="M317 1289l1 -2.99805l463 -1149c6.66699 -10 16 -13.667 28 -11c12 3.33301 18 11.333 18 24v1036h-75v-776l-367 910l-3 6c-17.333 30 -41.333 51.667 -72 65c-31.333 13.333 -63.666 15.666 -96.999 6.99902c-33.333 -9.33301 -60.333 -27.333 -81 -54
s-31 -57.334 -31 -92.001v-1252h75v1252c0 38.667 18.667 63 56 73s65.666 -2 84.999 -36zM877 1403l0.000976562 -1253c0 -38 -18.667 -62 -56 -72s-65.333 1.66699 -84 35l-2 3l-463 1150c-6 10 -15 13.333 -27 10c-12.667 -3.33301 -19 -11.333 -19 -24v-1006h75v747
l367 -911l3 -5c29.333 -51.333 72.666 -77 129.999 -77c13.333 0 26.333 1.66699 39 5c34 8.66699 61.333 26.334 82 53.001c20 26.667 30 57.334 30 92.001v1253h-75z" />
    <glyph glyph-name="o" unicode="o" horiz-adv-x="1016" 
d="M489 1277c-76 0 -141 -27 -195 -81c-54 -53.333 -81 -118 -81 -194v-372h75v372c0 55.333 19.667 102.333 59 141c39.333 39.333 86.666 59 141.999 59h50c55.333 0 102.333 -19.667 141 -59c39.333 -38.667 59 -85.667 59 -141v-601
c0 -55.333 -19.667 -102.666 -59 -141.999c-38.667 -39.333 -85.667 -59 -141 -59h-50c-55.333 0 -102.666 19.667 -141.999 59s-59 86.666 -59 141.999v133h-75v-133c0 -76 27 -141 81 -195s119 -81 195 -81h50c76 0 140.667 27 194 81c54 54 81 119 81 195v601
c0 76 -27 140.667 -81 194c-53.333 54 -118 81 -194 81h-50zM864 588v-187c0 -90 -31.667 -166.667 -95 -230c-64 -64 -140.667 -96 -230 -96h-50c-90 0 -166.667 32 -230 96c-64 63.333 -96 140 -96 230v601c0 89.333 32 166 96 230c63.333 63.333 140 95 230 95h50
c89.333 0 166 -31.667 230 -95c63.333 -64 95 -140.667 95 -230v-73h75v73c0 110 -39 204.333 -117 283c-78.667 78 -173 117 -283 117h-50c-110.667 0 -205.334 -39 -284.001 -117c-78 -78.667 -117 -173 -117 -283v-601c0 -110.667 39 -205.334 117 -284.001
c78.667 -78 173.334 -117 284.001 -117h50c110 0 204.333 39 283 117c78 78.667 117 173.334 117 284.001v187h-75z" />
    <glyph glyph-name="p" unicode="p" horiz-adv-x="964" 
d="M398 1402c-83.333 0 -154.333 -29.3311 -213 -87.998s-88 -129.334 -88 -212.001v-1102h75v1102c0 62 22 115 66 159s97.333 66 160 66h300c34.667 0 64 -12.333 88 -37c24.667 -24 37 -53.333 37 -88v-301c0 -34 -12.333 -63.333 -37 -88
c-24 -24.667 -53.333 -37 -88 -37h-476v-573h75v498h401c55.333 0 102.666 19.667 141.999 59c38.667 39.333 58 86.333 58 141v301c0 55.333 -19.333 102.666 -58 141.999c-39.333 38.667 -86.666 58 -141.999 58h-300zM297 1102c0 27.333 10.001 51 30.001 71
c19.333 19.333 42.666 29 69.999 29h301v-301h-401v201zM773.001 1202c0 20.667 -7.33301 38.332 -22 52.999s-32.334 22 -53.001 22h-301c-48 0 -89 -17 -123 -51c-34.667 -34.667 -52 -76 -52 -124v-276h476c20.667 0 38.334 7.33301 53.001 22s22 32.334 22 53.001v301z
" />
    <glyph glyph-name="q" unicode="q" horiz-adv-x="1038" 
d="M489 294l57.999 -92.999c-3.33301 -0.666992 -6 -1 -8 -1h-50c-55.333 0 -102.666 19.667 -141.999 59s-59 86.666 -59 141.999v315h-75v-315c0 -76 27 -141 81 -195s119 -81 195 -81h50c44 0 85.667 10 125 30l-112 179zM488.999 1277c-76 0 -140.999 -27 -194.999 -81
c-54 -53.333 -81 -118 -81 -194v-134h75v134c0 55.333 19.667 102.333 59 141c39.333 39.333 86.666 59 141.999 59h50c55.333 0 102.333 -19.667 141 -59c39.333 -38.667 59 -85.667 59 -141v-601c0 -32.667 -7.66699 -63.667 -23 -93l-57 93l-64 -40l111 -179
c72 55.333 108 128.333 108 219v601c0 76 -27 140.667 -81 194c-53.333 54 -118 81 -194 81h-50zM939 1002c0 110 -39 204.333 -117 283c-78.667 78 -173 117 -283 117h-50c-110.667 0 -205.334 -39 -284.001 -117c-78 -78.667 -117 -173 -117 -283v-601
c0 -110.667 39 -205.334 117 -284.001c78.667 -78 173.334 -117 284.001 -117h50c41.333 -0 81.666 6.33301 120.999 19l12 -19h88l-70 113c-47.333 -25.333 -97.666 -38 -150.999 -38h-50c-90 0 -166.667 32 -230 96c-64 63.333 -96 140 -96 230v601
c0 89.333 32 166 96 230c63.333 63.333 140 95 230 95h50c89.333 0 166 -31.667 230 -95c63.333 -64 95 -140.667 95 -230v-601c0 -109.333 -43.667 -196.666 -131 -261.999l87 -139h88l-78 126c72.667 77.333 109 169 109 275v601z" />
    <glyph glyph-name="r" unicode="r" horiz-adv-x="958" 
d="M696 1327c34.667 0 64.335 -12.3291 89.002 -36.9961c24 -24 36 -53.333 36 -88v-300c0 -34.667 -12 -64.334 -36 -89.001c-24.667 -24.667 -54.334 -37 -89.001 -37h-354l374 -573h91l-326 498h216c55.333 0 102.666 19.667 141.999 59
c38.667 39.333 58 86.666 58 141.999v300c0 55.333 -19.333 102.666 -58 141.999c-39.333 38.667 -86.666 58 -141.999 58h-301c-82.667 0 -153.334 -29.333 -212.001 -88s-88 -129.334 -88 -212.001v-1102h74v1102c0 62 22 115 66 159c44.667 44 98 66 160 66h300z
M296.001 1102c0 27.333 10.001 51 30.001 71c19.333 19.333 42.666 29 69.999 29h301v-300h-401v200zM696.002 826.004c20.667 0 38.334 7.33203 53.001 21.999s22 32.667 22 54v300c0 20.667 -7.33301 38.334 -22 53.001s-32.334 22 -53.001 22h-300
c-48.667 0 -90 -17 -124 -51c-34.667 -34.667 -52 -76 -52 -124v-276h476zM282.002 776.003h-62v-573h76v415l402 -618h89z" />
    <glyph glyph-name="s" unicode="s" horiz-adv-x="929" 
d="M167 1002c0 -48.667 17.333 -90.002 52 -124.002c34 -34.667 75.333 -52 124 -52h200c62 0 115 -22 159 -66s66 -97 66 -159v-301c0 -62 -22 -115 -66 -159s-97 -66 -159 -66h-284v-75h284c82.667 0 153.334 29.333 212.001 88s88 129.334 88 212.001v301
c0 82.667 -29.333 153.334 -88 212.001s-129.334 88 -212.001 88h-200c-28 0 -51.667 10 -71 30c-20 19.333 -30 43 -30 71v100c0 27.333 10 51 30 71c19.333 19.333 43 29 71 29h257v75h-257c-48.667 0 -90 -17 -124 -51c-34.667 -34.667 -52 -76 -52 -124v-100zM342 1402
c-82.667 0 -153.334 -29.332 -212.001 -87.999s-88 -129.334 -88 -212.001v-100c0 -83.333 29.333 -154.333 88 -213s129.334 -88 212.001 -88h201c27.333 0 51 -9.66699 71 -29c19.333 -20 29 -43.667 29 -71v-300c0 -28 -9.66699 -51.667 -29 -71
c-20 -20 -43.667 -30 -71 -30h-501v-75h501c48 0 89.333 17.333 124 52c34 34 51 75.333 51 124v300c0 48 -17 89.333 -51 124c-34.667 34 -76 51 -124 51h-201c-62 0 -115 22 -159 66s-66 97.333 -66 160v100c0 62 22 115 66 159s97 66 159 66h501v75h-501z" />
    <glyph glyph-name="t" unicode="t" horiz-adv-x="878" 
d="M99 1277v-75h244v-1202h75v1277h-319zM19 1327h849v75h-849v-75zM468 1277v-1116h76v1041h324v75h-400z" />
    <glyph glyph-name="u" unicode="u" horiz-adv-x="1055" 
d="M870 1402l-0.000976562 -1001c0 -90 -31.667 -166.667 -95 -230c-64 -64 -140.667 -96 -230 -96h-50c-90 0 -166.667 32 -230 96c-64 63.333 -96 140 -96 230v1001h-75v-1001c0 -110.667 39 -205.334 117 -284.001c78.667 -78 173.334 -117 284.001 -117h50
c110 0 204.333 39 283 117c78 78.667 117 173.334 117 284.001v1001h-75zM544.999 125c76 0 140.666 27 193.999 81c54 54 81 119 81 195v870h-75v-870c0 -55.333 -19.667 -102.666 -59 -141.999c-38.667 -39.333 -85.667 -59 -141 -59h-50
c-55.333 0 -102.666 19.667 -141.999 59s-59 86.666 -59 141.999v614h-75v-614c0 -76 27 -141 81 -195s119 -81 195 -81h50z" />
    <glyph glyph-name="v" unicode="v" horiz-adv-x="992" 
d="M581 181l237 1221h-76l-215 -1103l-215 887h-78l246 -1010c8 -34.667 25 -51.667 51 -51s42.667 19.334 50 56.001zM869 1402l-238.999 -1231c-6 -30.667 -19 -54.667 -39 -72c-17.333 -15.333 -37 -23.333 -59 -24h-2c-51.333 0 -84.333 30 -99 90l-301 1237h-77
l305 -1255c10.667 -44 31.667 -79.667 63 -107c32 -26.667 68.333 -40 109 -40h4c42 1.33301 78.333 16.333 109 45c31.333 28.667 51.666 66 60.999 112l242 1245h-77z" />
    <glyph glyph-name="w" unicode="w" horiz-adv-x="1675" 
d="M592 181l237.001 1221h-76l-215 -1103l-140 576c-38.667 155.333 -57.334 230.333 -56.001 225h-77c4 -18 34 -140.667 90 -368l136 -556c8 -34.667 25 -51.667 51 -51s42.667 19.334 50 56.001zM1582 1402l-239.999 -1231c-6 -30.667 -19 -54.667 -39 -72
c-17.333 -15.333 -37 -23.333 -59 -24h-2c-51.333 0 -84.333 30 -99 90l-279 1151l-223 -1145c-6 -30.667 -19 -54.667 -39 -72c-17.333 -15.333 -37 -23.333 -59 -24h-2c-51.333 0 -84.333 30 -99 90l-301 1237h-77l305 -1255c10.667 -44 31.667 -79.667 63 -107
c32 -26.667 68.333 -40 109 -40h4c42 1.33301 78.333 16.333 109 45c31.333 28.667 51.666 66 60.999 112l157 807l198 -817c10.667 -44 32 -79.667 64 -107c31.333 -26.667 67.333 -40 108 -40h4c42 1.33301 78.667 16.333 110 45s51.333 66 60 112l242 1245h-76z
M1293 180.999l151 790.999h-77l-127 -673l-269 1103h-77l298 -1226c8.66699 -34.667 25.667 -51.667 51 -51c26 0.666992 42.667 19.334 50 56.001z" />
    <glyph glyph-name="x" unicode="x" horiz-adv-x="841" 
d="M603 1402l-176 -421l-176 421h-82l258 -617l258 617h-82zM33 1402l285 -682l-300 -720h81l301 720l-285 682h-82zM257 246h81l89 213l192 -459h82l-274 655zM740 1402l-285 -682l300 -720h82l-301 720l286 682h-82z" />
    <glyph glyph-name="y" unicode="y" horiz-adv-x="1016" 
d="M782 826v576h-75v-501h-350c-28 0 -51.667 10 -71 30c-20 19.333 -30 43 -30 71v226h-75v-226c0 -48.667 17.333 -90 52 -124c34 -34.667 75.333 -52 124 -52h425zM782 776l-425 -0.000976562c-62.667 0 -116 22 -160 66s-66 97.333 -66 160v400h-75v-400
c0 -83.333 29.333 -154.333 88 -213s129.667 -88 213 -88h350v-401c0 -27.333 -9.66699 -50.666 -29 -69.999c-20 -20 -43.667 -30 -71 -30h-345v-75h345c48 0 89.333 17.333 124 52c34 34 51 75 51 123v476zM832 1314l-0.000976562 -1014c0 -62 -22 -115 -66 -159
s-97 -66 -159 -66h-551v-75h551c82.667 0 153.334 29.333 212.001 88s88 129.334 88 212.001v1014h-75z" />
    <glyph glyph-name="z" unicode="z" horiz-adv-x="915" 
d="M118 248l1.00098 3l2 2l634 922c8.66699 24 6 47 -8 69c-14.667 22 -35.667 33 -63 33h-464v-75h462l-629 -915l-4 -10c-27.333 -66 -21.333 -128.667 18 -188c40 -59.333 95.667 -89 167 -89h651v75h-651c-44.667 0 -79.334 18.667 -104.001 56
c-25.333 37.333 -29.333 76.333 -12 117zM236.001 200l628.999 915l4 10c28 66 22 128.667 -18 188c-39.333 59.333 -95 89 -167 89h-651v-75h651c44.667 0 79.667 -18.667 105 -56c24.667 -36.667 28.334 -75.667 11.001 -117l-1 -3l-2 -2l-633 -922
c-9.33301 -24 -7 -46.667 7 -68c15.333 -22.667 36.333 -34 63 -34h285v75h-283z" />
    <glyph glyph-name="quoteleft" unicode="&#x2018;" horiz-adv-x="346" 
d="M122 1433v-401h-50v401h-75v-401h200v401h-75z" />
    <glyph glyph-name="quoteright" unicode="&#x2019;" horiz-adv-x="346" 
d="M122 1433v-401h-50v401h-75v-401h200v401h-75z" />
    <glyph glyph-name="quotesinglbase" unicode="&#x201a;" horiz-adv-x="346" 
d="M122 1433v-401h-50v401h-75v-401h200v401h-75z" />
    <glyph glyph-name="quotedblleft" unicode="&#x201c;" horiz-adv-x="346" 
d="M122 1433v-401h-50v401h-75v-401h200v401h-75z" />
    <glyph glyph-name="quotedblright" unicode="&#x201d;" horiz-adv-x="346" 
d="M122 1433v-401h-50v401h-75v-401h200v401h-75z" />
    <glyph glyph-name="uniF001" unicode="&#xf001;" horiz-adv-x="1073" 
 />
    <glyph glyph-name="uniF001" unicode="&#xfb01;" horiz-adv-x="1073" 
 />
    <glyph glyph-name="uniF002" unicode="&#xf002;" horiz-adv-x="1081" 
 />
    <glyph glyph-name="uniF002" unicode="&#xfb02;" horiz-adv-x="1081" 
 />
    <glyph glyph-name="nonmarkingreturn" horiz-adv-x="508" 
 />
  </font>
</defs>
</svg>
